<svg width="54" height="50" viewBox="0 0 54 50" fill="none" xmlns="http://www.w3.org/2000/svg">
<g id="ncoc-logo">
<g id="type">
<path fill="#008BCB" d="M14.9396 34.4336H17.167V42.8494H14.9396L11.6801 38.284V42.8494H9.34406V34.4336H11.6801L14.9396 38.944V34.4336Z"/>
<path fill="#008BCB" d="M22.8169 34.4336H25.7505H25.8048V34.4886V36.3588V36.4138H25.7505H23.4688C23.1429 36.4138 22.8712 36.4688 22.5996 36.5788C22.328 36.6888 22.0563 36.8538 21.839 37.0739C21.6217 37.2939 21.4588 37.5139 21.3501 37.7889C21.2415 38.064 21.1871 38.284 21.1871 38.559C21.1871 38.889 21.2415 39.2191 21.3501 39.4941C21.4588 39.7691 21.6217 40.0442 21.839 40.2642C22.0563 40.4842 22.328 40.6492 22.5996 40.7592C22.8712 40.8692 23.1972 40.9242 23.5231 40.9242H25.8048H25.8592V40.9792V42.8494V42.9044H25.8048H22.8169C22.2193 42.9044 21.6761 42.7944 21.2415 42.5744C20.7525 42.3544 20.3179 42.0794 19.9376 41.6393C19.5573 41.2543 19.2857 40.7592 19.0684 40.2642C18.8511 39.7691 18.7968 39.2191 18.7968 38.614C18.7968 37.5139 19.2314 36.5238 20.0463 35.6987C20.4809 35.3137 20.9155 34.9837 21.3501 34.7636C21.7847 34.5436 22.2736 34.4336 22.8169 34.4336Z"/>
<path fill="#008BCB" d="M31.7264 36.1391C31.3461 36.1391 31.0745 36.1941 30.7485 36.3041C30.4769 36.4141 30.2052 36.5791 29.9879 36.7991C29.7706 37.0191 29.6077 37.2942 29.499 37.5692C29.3904 37.8442 29.336 38.1743 29.336 38.5593C29.336 38.8893 29.3904 39.2194 29.499 39.4944C29.6077 39.7694 29.7706 40.0444 29.9879 40.2645C30.2052 40.4845 30.4769 40.7045 30.7485 40.8145C31.0201 40.9245 31.3461 40.9795 31.7264 40.9795C32.1066 40.9795 32.4326 40.9245 32.7042 40.8145C32.9759 40.7045 33.2475 40.5395 33.4648 40.3195C33.8994 39.8794 34.1167 39.2744 34.1167 38.5593C34.1167 38.1743 34.0624 37.8442 33.9537 37.5692C33.8451 37.2942 33.6821 37.0191 33.4648 36.7991C33.2475 36.5791 32.9759 36.4141 32.7042 36.3041C32.4326 36.2491 32.1066 36.1391 31.7264 36.1391ZM31.7264 43.0698C31.0745 43.0698 30.4225 42.9597 29.8793 42.7947C29.336 42.6297 28.7928 42.3547 28.3582 41.9696C27.8692 41.5846 27.4889 41.0896 27.2716 40.5395C27.0543 39.9894 26.8914 39.3844 26.8914 38.6693C26.8914 38.0092 27 37.3492 27.2716 36.7991C27.4889 36.2491 27.8692 35.754 28.3582 35.369C28.7928 34.9839 29.2817 34.7089 29.8793 34.4889C30.4225 34.3239 31.0745 34.2139 31.7264 34.2139C32.3783 34.2139 33.0302 34.3239 33.5734 34.4889C34.1167 34.6539 34.66 34.9839 35.0946 35.369C35.5835 35.754 35.9095 36.2491 36.1811 36.7991C36.3984 37.3492 36.5614 37.9542 36.5614 38.6693C36.5614 39.3844 36.4527 39.9894 36.1811 40.5395C35.9638 41.0896 35.5835 41.5846 35.0946 41.9696C34.66 42.3547 34.171 42.6297 33.5734 42.7947C33.0302 42.9597 32.4326 43.0698 31.7264 43.0698Z"/>
<path fill="#008BCB" d="M41.6137 34.4336H44.5473H44.6016V34.4886V36.3588V36.4138H44.5473H42.2656C41.9396 36.4138 41.668 36.4688 41.3964 36.5788C41.1248 36.6888 40.8531 36.8538 40.6358 37.0739C40.4185 37.2939 40.2555 37.5139 40.1469 37.7889C40.0382 38.064 39.9839 38.284 39.9839 38.559C39.9839 38.889 40.0382 39.2191 40.1469 39.4941C40.2555 39.7691 40.4185 40.0442 40.6358 40.2642C40.8531 40.4842 41.1248 40.6492 41.3964 40.7592C41.668 40.8692 41.994 40.9242 42.3199 40.9242H44.5473H44.6016V40.9792V42.8494V42.9044H44.5473H41.6137C41.0161 42.9044 40.4728 42.7944 40.0382 42.5744C39.5493 42.3544 39.1147 42.0794 38.7344 41.6393C38.3541 41.2543 38.0825 40.7592 37.8652 40.2642C37.6479 39.7691 37.5936 39.2191 37.5936 38.614C37.5936 37.5139 38.0282 36.5238 38.8431 35.6987C39.2777 35.3137 39.7123 34.9837 40.1469 34.7636C40.5815 34.5436 41.0704 34.4336 41.6137 34.4336Z"/>
</g>
<path fill="#FDC600" id="shanyrak" d="M25.8592 3.79538C25.8592 3.24532 26.3481 2.14521 26.5111 1.65017L27.1087 0L27.6519 1.65017C27.8149 2.20022 28.2495 3.30033 28.2495 3.85039C28.2495 4.73047 27.7063 5.39054 27.0543 5.39054C26.4024 5.39054 25.8592 4.67547 25.8592 3.79538ZM20.1006 5.94059C20.4809 6.65567 21.2415 6.9857 21.7847 6.71067C22.328 6.43564 22.491 5.61056 22.1107 4.89549C21.8934 4.40044 21.0242 3.68537 20.6439 3.30033L19.3944 2.20022L19.666 3.85039C19.7747 4.34543 19.8833 5.50055 20.1006 5.94059ZM16.0805 8.74587C16.5694 9.24092 17.2757 9.29593 17.656 8.9659C18.0362 8.58086 17.9819 7.86579 17.493 7.37074C17.167 7.0407 16.2978 6.71067 15.9175 6.49065L14.668 5.88559L15.2113 7.15072C15.4286 7.53575 15.7545 8.41584 16.0805 8.74587ZM13.4729 13.4763C14.0704 13.7514 14.7223 13.5314 14.8853 13.0913C15.1026 12.5963 14.7767 12.0462 14.1791 11.7712C13.7988 11.6062 12.9296 11.6062 12.495 11.5512L11.1912 11.4411L12.169 12.3212C12.495 12.6513 13.0926 13.3113 13.4729 13.4763ZM34.2797 5.94059C34.497 5.50055 34.6056 4.34543 34.7143 3.85039L34.9859 2.20022L33.7364 3.30033C33.3561 3.68537 32.4869 4.40044 32.2696 4.84048C31.8894 5.55556 32.0523 6.38064 32.5956 6.65567C33.1388 6.9857 33.8994 6.65567 34.2797 5.94059ZM38.2998 8.74587C38.6258 8.41584 38.9517 7.53575 39.169 7.15072L39.7666 5.88559L38.5171 6.49065C38.1368 6.71067 37.2676 7.0407 36.9417 7.37074C36.4527 7.86579 36.3984 8.58086 36.7787 8.9659C37.159 9.29593 37.8109 9.24092 38.2998 8.74587ZM40.9075 13.4763C41.2877 13.3113 41.8853 12.6513 42.2113 12.3762L43.1891 11.4962L41.8853 11.6062C41.4507 11.6612 40.5815 11.6612 40.2012 11.8262C39.6036 12.1012 39.2777 12.6513 39.495 13.1463C39.658 13.5864 40.3099 13.7514 40.9075 13.4763ZM29.9336 18.7019L28.9014 19.747L28.9557 19.802L29.0101 19.857L29.173 20.022C29.7706 20.022 30.1509 20.022 30.7485 20.022L30.9115 19.857L30.9658 19.802L31.0201 19.747L29.9336 18.7019ZM28.5211 17.3817L27.5433 18.3718L27.4889 18.4268L28.5211 19.4719L28.5755 19.4169L29.5533 18.4268L29.6077 18.3718L28.5211 17.3817ZM28.1952 19.802L27.163 18.7569L26.1851 19.802L26.2394 19.857C26.837 19.912 27.4346 19.912 28.0322 19.967L28.1952 19.802ZM24.7726 18.3718L25.8592 19.4719L26.8914 18.4268L26.837 18.3718L25.8048 17.3267L24.7726 18.3718ZM17.8189 18.4818C17.9819 17.3267 18.3622 16.1716 18.9054 15.1815L19.3401 15.6216H19.7747L22.1107 17.9868L22.165 18.4268L23.0885 19.3619L23.3059 19.1419L23.9578 18.4818L24.1751 18.2618L23.2515 17.3267L22.8169 17.3817L20.4809 15.0165V14.5765L19.7747 13.9164C19.8833 13.8064 19.9376 13.6964 20.0463 13.5864L20.7525 14.3014L21.1871 14.3564L23.5232 16.7217L23.5775 17.1617L24.501 18.0968L24.7183 17.8768L25.3702 17.2167L25.5875 16.9967L24.664 16.0616H24.2294L21.8934 13.6964L21.7847 13.2013L21.0785 12.4862C21.1871 12.3762 21.2958 12.3212 21.4044 12.2112L22.0564 12.9263L22.491 12.9813L24.827 15.3465V15.7866L25.7505 16.7217L25.9678 16.5017L26.6197 15.8416L26.837 15.6216L25.9135 14.6865H25.4789L23.1429 12.3212V11.8812L22.7083 11.4411C24.0664 10.7261 25.5875 10.286 27.2173 10.286C28.8471 10.286 30.3682 10.7261 31.7264 11.4411L31.2918 11.8812V12.3212L28.9557 14.6865H28.5211L27.5976 15.6216L27.8149 15.8416L28.4668 16.5017L28.6841 16.7217L29.6077 15.7866L29.662 15.3465L31.998 12.9813L32.4326 12.9263L33.0845 12.2112C33.1932 12.3212 33.3018 12.3762 33.4105 12.4862L32.5956 13.2013L32.5413 13.6414L30.2052 16.0066H29.7706L28.8471 16.9417L29.0644 17.1617L29.7163 17.8218L29.9336 18.0418L30.8572 17.1067V16.6667L33.1932 14.3014H33.6821L34.3883 13.5864C34.497 13.6964 34.5513 13.8064 34.66 13.9164L33.9537 14.5765L33.8994 15.0165L31.5634 17.3817L31.1288 17.4367L30.2052 18.3718L30.4226 18.5919L31.0745 19.2519L31.2918 19.4719L32.2153 18.5369L32.2696 18.0968L34.6056 15.7316H35.0403L35.4749 15.2915C36.1268 16.5567 36.5614 17.9868 36.6157 19.4719C37.0503 19.4169 37.4306 19.3069 37.8652 19.1969C37.7022 16.4466 36.5614 13.9714 34.7686 12.1562C32.8129 10.176 30.1509 8.9659 27.2173 8.9659C24.2837 8.9659 21.5674 10.176 19.666 12.1562C18.0906 13.7514 17.004 15.8416 16.6781 18.2068C17.1127 18.3168 17.5473 18.4268 17.8189 18.4818ZM27.163 15.9516L26.1308 16.9967L27.163 18.0418H27.2716L28.3038 16.9967L27.2173 15.9516H27.163ZM23.5232 19.582C24.1207 19.637 24.7183 19.747 25.3702 19.802L25.4246 19.747L24.4467 18.7019L23.5232 19.582ZM15.5372 17.8218C15.9718 15.2915 17.1127 13.0913 18.8511 11.3311C20.9698 9.18592 23.9578 7.81078 27.2173 7.81078C30.4769 7.81078 33.4105 9.13091 35.5835 11.3311C37.5392 13.3113 38.7887 15.9516 39.0061 18.8669C39.332 18.7569 39.658 18.7019 39.9839 18.5919C39.7123 15.4565 38.3541 12.7063 36.2898 10.6161C33.9537 8.25082 30.7485 6.82068 27.2173 6.82068C23.6861 6.82068 20.4809 8.25082 18.1449 10.6161C16.3521 12.4312 15.0483 14.8515 14.6137 17.4917C14.9397 17.6018 15.2656 17.7118 15.5372 17.8218Z"/>
<path fill="#008BCB" id="wing_left" d="M27.5433 22.8827C27.1087 22.1676 26.6197 21.6175 26.0221 21.2325C24.5553 20.2974 22.4366 19.5823 19.7746 19.3623C17.6016 19.1973 15.0483 19.5273 12.006 18.5372C10.0503 17.8772 9.01811 16.282 6.6821 14.9069C5.4326 14.1918 3.36821 13.8068 1.73843 12.9817C1.41248 12.8167 1.08652 12.5966 0.814893 12.4316C0.488937 12.2666 0.380285 12.2666 0.325959 12.2666C-0.923537 12.4316 2.33602 16.667 5.70423 17.8222C10.3763 19.4173 8.09457 19.4173 8.09457 19.4173C8.09457 19.4173 5.48692 19.2523 2.28169 17.3271C1.62978 18.2072 2.87928 19.6373 5.48692 20.5724C8.09457 21.5075 8.5835 21.5075 8.5835 21.5075C8.5835 21.5075 10.0503 21.6175 8.04024 22.1676C6.95373 22.4426 5.37827 22.1126 5.4326 22.4426C5.54125 23.3777 10.7022 24.2578 11.7887 24.8629C11.7887 24.8629 8.04024 25.2479 9.39839 26.018C12.332 27.6131 16.1891 28.1082 19.829 28.6582C20.5352 28.7683 21.1871 28.8783 21.8934 28.9883C22.8712 29.0983 23.5231 29.1533 24.4467 28.9333C26.0765 28.4932 26.837 26.678 26.7284 25.3579C26.6197 24.4228 26.0765 23.7628 25.3702 23.3777C24.501 22.8827 23.3058 22.8277 22.5453 23.5427C21.839 24.2028 21.6761 25.5779 22.6539 26.018C23.5231 26.293 23.9577 25.798 24.1207 25.4129C24.2837 24.9179 23.9577 24.3678 23.3602 24.2578C23.8491 23.9278 24.4467 23.9828 24.9356 24.3678C25.7505 25.1929 25.4245 26.568 24.2837 27.2281C23.3058 27.7782 21.7847 27.5031 21.1328 26.733C20.3179 25.963 19.9376 24.2028 21.5131 22.4976C18.9054 23.5977 17.8189 23.1027 15.0483 21.1775C15.0483 21.1775 16.5694 21.6175 20.4266 21.5075C24.2294 21.3425 24.7183 21.3425 26.0765 21.8376C26.7284 22.1126 27.2173 22.4976 27.5433 22.8827Z"/>
<path fill="#008BCB" id="wing_right" d="M30.0422 20.9573C31.672 20.7922 33.2475 20.2972 34.5513 20.2972C36.996 20.2422 39.0603 20.6272 41.505 19.8021C42.7545 19.4171 43.841 18.097 45.3622 17.2719C46.3944 16.7218 47.8068 16.7218 49.0563 15.8968C50.2515 15.0717 51.5553 14.1916 53.0221 13.0915C53.1308 13.0365 53.2394 12.9265 53.3481 12.8164C53.511 12.7064 53.6197 12.7614 53.7284 12.8164C54.7605 13.0915 52.3159 16.4468 49.0563 17.5469C45.5251 18.757 49.1106 19.0321 51.7183 17.4919C52.6418 18.427 51.4467 20.2422 48.4044 21.0673C45.3078 21.8924 45.3078 22.0024 45.3078 22.0024C43.4064 22.1674 48.676 21.8924 48.676 22.2224C48.5131 23.7625 44.4386 24.9727 43.0805 24.9727C43.0805 24.9727 45.3622 25.1927 44.1127 26.1278C39.5493 29.5381 33.6821 24.6426 28.9014 31.9034C29.662 26.1828 35.3662 22.7724 36.1811 25.6877C36.7787 24.8626 37.1589 23.2675 34.497 22.7724C32.9215 20.9573 28.4125 23.3775 29.6076 21.1223C29.6076 21.1223 29.662 21.0123 29.7706 20.9573C29.8793 20.9573 29.9879 20.9573 30.0422 20.9573Z"/>
</g>
<path fill="#636266" d="M9.39841 44.4444H9.77869L10.5393 45.7095V44.4444H10.9195V46.3696H10.5393L9.83302 45.1045V46.3146H9.45273V44.4444H9.39841ZM13.3099 44.3894C13.5272 44.3894 13.7445 44.4444 13.9075 44.6094C14.0161 44.6644 14.0704 44.7744 14.1248 44.8845C14.1791 45.0495 14.2334 45.2145 14.2334 45.3795C14.2334 45.5995 14.1791 45.8195 14.0704 45.9846C13.9075 46.2046 13.6902 46.3696 13.3642 46.3696C13.1469 46.3696 12.9296 46.3146 12.7666 46.1496C12.658 46.0946 12.6036 45.9846 12.5493 45.8746C12.495 45.7095 12.4407 45.5445 12.4407 45.3795C12.4407 45.2695 12.4407 45.1595 12.495 45.0495C12.5493 44.9395 12.5493 44.8295 12.6036 44.7744C12.7123 44.6094 12.8209 44.5544 12.9839 44.4444C13.0926 44.4444 13.2012 44.3894 13.3099 44.3894ZM13.3642 44.7744C13.2012 44.7744 13.0926 44.8294 13.0382 44.9395C12.9296 45.0495 12.8753 45.2145 12.8753 45.3795C12.8753 45.5995 12.9296 45.7645 13.0382 45.8746C13.1469 45.9846 13.2556 46.0396 13.3642 46.0396C13.5272 46.0396 13.6358 45.9846 13.6902 45.8746C13.7988 45.7645 13.8531 45.5995 13.8531 45.3795C13.8531 45.1595 13.7988 44.9945 13.7445 44.9395C13.5815 44.8294 13.4729 44.7744 13.3642 44.7744ZM15.7002 44.4444H16.5151C16.6238 44.4444 16.7324 44.4444 16.7867 44.4444C16.8411 44.4444 16.8954 44.4994 16.9497 44.4994C17.004 44.5544 17.0584 44.6094 17.1127 44.6644C17.167 44.7744 17.167 44.8294 17.167 44.9395C17.167 45.1045 17.1127 45.2695 16.8954 45.3795C16.9497 45.3795 17.004 45.4345 17.0584 45.4895C17.1127 45.5445 17.1127 45.5995 17.1127 45.7095V46.0396C17.1127 46.0946 17.1127 46.1496 17.1127 46.1496C17.1127 46.2046 17.167 46.2046 17.2213 46.2596H16.8411C16.7867 46.2596 16.7867 46.2596 16.7867 46.2596C16.7867 46.2596 16.7324 46.2596 16.7324 46.2046L16.6781 46.1496C16.6781 46.1496 16.6781 46.0946 16.6781 45.9846V45.7645C16.6781 45.7095 16.6781 45.6545 16.6238 45.5995C16.6781 45.6545 16.6238 45.6545 16.5694 45.6545H16.1348V46.3696H15.7545V44.4444H15.7002ZM16.1348 44.7744V45.2695H16.5694C16.6238 45.2695 16.6781 45.2695 16.7324 45.2145C16.7867 45.1595 16.8411 45.1045 16.8411 45.0495C16.8411 44.9945 16.8411 44.9395 16.7867 44.8845C16.7324 44.8294 16.6781 44.8295 16.6238 44.8295H16.1348V44.7744ZM18.5795 44.4444H20.1006V44.8295H19.5574V46.3696H19.1771V44.8295H18.6338V44.4444H18.5795ZM21.4588 44.4444H21.8391V45.1595H22.5996V44.4444H22.9799V46.3696H22.5996V45.5445H21.8391V46.3696H21.4588V44.4444ZM43.0262 44.4444H43.4065L44.167 45.7095V44.4444H44.5473V46.3696H44.167L43.4065 45.1045V46.3146H43.0262V44.4444ZM40.5815 45.5995H41.0161L40.7445 44.9395L40.5815 45.5995ZM40.5815 44.4444H40.9618L41.668 46.3696H41.2334L41.1248 45.9846H40.4729L40.3642 46.3696H39.9296L40.5815 44.4444ZM38.1368 44.4444H38.5171V46.3696H38.1368V44.4444ZM35.6922 44.7744V45.3245H36.0725C36.1268 45.3245 36.1811 45.3245 36.2354 45.2695C36.2898 45.2145 36.2898 45.1595 36.2898 45.0495C36.2898 44.9395 36.2354 44.8845 36.1811 44.8295C36.1268 44.7744 36.0725 44.7744 35.9638 44.7744H35.6922ZM35.2576 44.4444H36.0181C36.1268 44.4444 36.2354 44.4444 36.2898 44.4994C36.3441 44.4994 36.4527 44.5544 36.5071 44.6094C36.6157 44.7194 36.7244 44.8845 36.7244 45.1045C36.7244 45.2695 36.67 45.4345 36.5614 45.5445C36.5071 45.5995 36.4527 45.6545 36.3441 45.6545C36.2898 45.6545 36.1811 45.7095 36.0725 45.7095H35.6922V46.3696H35.3119V44.4444H35.2576ZM32.2696 45.7095H32.6499C32.6499 45.8195 32.7042 45.8746 32.7586 45.9296C32.8129 45.9846 32.9215 45.9846 33.0302 45.9846C33.2475 45.9846 33.4105 45.9296 33.4105 45.7645C33.4105 45.6545 33.3562 45.5995 33.1932 45.5995L32.8672 45.4895C32.7042 45.4345 32.5956 45.3795 32.4869 45.3245C32.4326 45.2695 32.3783 45.2145 32.3783 45.1595C32.324 45.1045 32.324 44.9945 32.324 44.9395C32.324 44.7744 32.3783 44.6644 32.4869 44.5544C32.5956 44.4444 32.8129 44.3894 33.0302 44.3894C33.2475 44.3894 33.4105 44.4444 33.5735 44.5544C33.6821 44.6644 33.7364 44.8295 33.7364 45.0495H33.3562C33.3562 44.9395 33.3018 44.8845 33.3018 44.8295C33.2475 44.7744 33.1389 44.7194 33.0302 44.7194C32.9215 44.7194 32.8672 44.7194 32.8129 44.7744C32.7586 44.8295 32.7042 44.8845 32.7042 44.9395C32.7042 44.9945 32.7042 45.0495 32.7586 45.0495C32.8129 45.1045 32.8672 45.1045 32.9215 45.1045L33.1389 45.1595C33.3562 45.2145 33.5191 45.2695 33.6278 45.3245C33.6821 45.3795 33.7364 45.4345 33.7364 45.4895C33.7908 45.5445 33.7908 45.6545 33.7908 45.7095C33.7908 45.8195 33.7364 45.9846 33.6821 46.0396C33.5735 46.2046 33.3562 46.3146 33.0302 46.3146C32.8672 46.3146 32.7042 46.2596 32.5413 46.2046C32.3783 46.1496 32.2696 45.9846 32.2696 45.7095ZM29.9336 45.5995H30.3682L30.1509 44.9395L29.9336 45.5995ZM29.9336 44.4444H30.3139L31.0201 46.3696H30.5855L30.4769 45.9846H29.825L29.7163 46.3696H29.2817L29.9336 44.4444ZM27.9779 45.6545C27.9779 45.8746 27.9236 46.0396 27.7606 46.1496C27.5976 46.3146 27.4346 46.3696 27.163 46.3696C26.9457 46.3696 26.7827 46.3146 26.6741 46.2046C26.5654 46.1496 26.5111 46.0396 26.4024 45.9296C26.2938 45.7645 26.2938 45.5995 26.2938 45.3795C26.2938 45.1595 26.3481 44.9395 26.4568 44.7744C26.5654 44.6094 26.6741 44.5544 26.837 44.4444C26.9457 44.3894 27.0543 44.3894 27.2173 44.3894C27.3803 44.3894 27.5433 44.4444 27.7063 44.4994C27.8149 44.5544 27.8692 44.6094 27.9236 44.7194C27.9779 44.8295 28.0322 44.9395 28.0322 45.0495H27.6519C27.6519 44.9945 27.5976 44.8845 27.5976 44.8295C27.5433 44.7744 27.4346 44.7194 27.326 44.7194C27.163 44.7194 27.0543 44.7744 27 44.8845C26.8914 44.9945 26.837 45.1595 26.837 45.3795C26.837 45.5995 26.8914 45.7645 27.0543 45.8746C27.1087 45.9296 27.2173 45.9846 27.326 45.9846C27.4346 45.9846 27.5433 45.9296 27.5976 45.8746C27.6519 45.8196 27.7063 45.7095 27.7063 45.5995H27.9779V45.6545Z"/>
<path fill="#636266" d="M43.0262 48.0198H43.4608L43.8411 48.7898L44.2213 48.0198H44.6559L44.004 49.2299V49.945H43.6238V49.2299L43.0262 48.0198ZM40.9075 48.0198H41.2877L42.0483 49.2849V48.0198H42.4286V49.945H42.0483L41.2877 48.7348V49.945H40.9075V48.0198ZM39.169 49.2299H39.6036L39.3863 48.5698L39.169 49.2299ZM39.2234 48.0198H39.6036L40.3099 49.945H39.8753L39.7666 49.5599H39.1147L39.0061 49.945H38.5714L39.2234 48.0198ZM36.996 48.4048V48.9549H37.3763C37.4306 48.9549 37.4849 48.9549 37.5392 48.8999C37.5936 48.8449 37.5936 48.7899 37.5936 48.6798C37.5936 48.5698 37.5392 48.5148 37.4849 48.4598C37.4849 48.4048 37.4306 48.4048 37.3219 48.4048H36.996ZM36.6157 48.0198H37.3763C37.4849 48.0198 37.5936 48.0198 37.6479 48.0748C37.7022 48.0748 37.8109 48.1298 37.8652 48.1848C37.9739 48.2948 38.0825 48.4598 38.0825 48.6798C38.0825 48.8449 38.0282 49.0099 37.9195 49.1199C37.8652 49.1749 37.8109 49.2299 37.7022 49.2299C37.6479 49.2299 37.5393 49.2849 37.4306 49.2849H37.0503V49.945H36.67V48.0198H36.6157ZM33.9537 48.0198H34.5513L34.9316 49.3949L35.3119 48.0198H35.8551V49.945H35.4749V48.5698L35.0946 49.945H34.7686L34.3883 48.5698V49.945H34.0081V48.0198H33.9537ZM32.324 48.3498C32.161 48.3498 32.0523 48.4048 31.998 48.5148C31.8894 48.6248 31.835 48.7899 31.835 48.9549C31.835 49.1749 31.8894 49.3399 31.998 49.4499C32.1067 49.5599 32.2153 49.6149 32.324 49.6149C32.4869 49.6149 32.5956 49.5599 32.6499 49.4499C32.7586 49.3399 32.8129 49.1749 32.8129 48.9549C32.8129 48.7348 32.7586 48.5698 32.7042 48.5148C32.5956 48.4048 32.4869 48.3498 32.324 48.3498ZM32.324 48.0198C32.5413 48.0198 32.7586 48.0748 32.9215 48.2398C33.0302 48.2948 33.0845 48.4048 33.1388 48.5148C33.1932 48.6798 33.2475 48.8449 33.2475 49.0099C33.2475 49.2299 33.1932 49.4499 33.0845 49.6149C32.9215 49.835 32.7042 50 32.3783 50C32.161 50 31.9437 49.945 31.7807 49.78C31.672 49.7249 31.6177 49.6149 31.5634 49.5049C31.5091 49.3399 31.4547 49.1749 31.4547 49.0099C31.4547 48.8999 31.4547 48.7899 31.5091 48.6798C31.5634 48.5698 31.5634 48.4598 31.6177 48.4048C31.7264 48.2398 31.835 48.1848 31.998 48.0748C32.0523 48.0198 32.161 48.0198 32.324 48.0198ZM30.7485 49.2849C30.7485 49.5049 30.6942 49.6699 30.5312 49.78C30.3682 49.945 30.2052 50 29.9336 50C29.7163 50 29.5533 49.945 29.4447 49.835C29.336 49.7799 29.2817 49.6699 29.1731 49.5599C29.0644 49.3949 29.0644 49.2299 29.0644 49.0099C29.0644 48.7899 29.1187 48.5698 29.2274 48.4048C29.336 48.2398 29.4447 48.1848 29.6077 48.0748C29.7163 48.0198 29.825 48.0198 29.9879 48.0198C30.1509 48.0198 30.3139 48.0748 30.4769 48.1298C30.5855 48.1848 30.6399 48.2398 30.6942 48.3498C30.7485 48.4598 30.8028 48.5698 30.8028 48.6798H30.4226C30.4226 48.6248 30.3682 48.5148 30.3682 48.4598C30.3139 48.4048 30.2052 48.3498 30.0966 48.3498C29.9336 48.3498 29.825 48.4048 29.7706 48.5148C29.662 48.6248 29.6077 48.7899 29.6077 49.0099C29.6077 49.2299 29.662 49.3949 29.825 49.5049C29.8793 49.5599 29.9879 49.6149 30.0966 49.6149C30.2052 49.6149 30.3139 49.5599 30.3682 49.5049C30.4226 49.4499 30.4769 49.3399 30.4769 49.2299H30.7485V49.2849ZM26.8914 48.8999H27.7063V49.945H27.4346L27.3803 49.7249C27.2716 49.89 27.0543 50 26.837 50C26.6741 50 26.5111 49.945 26.3481 49.89C26.2395 49.835 26.1308 49.7249 26.0765 49.6149C25.9678 49.4499 25.9135 49.2299 25.9135 49.0649C25.9135 48.8449 25.9678 48.6248 26.0765 48.4598C26.1851 48.2948 26.2938 48.2398 26.4568 48.1298C26.5654 48.0748 26.7284 48.0198 26.8914 48.0198C27.0543 48.0198 27.163 48.0748 27.326 48.0748C27.5976 48.1848 27.7063 48.4048 27.7063 48.6798H27.326C27.326 48.6248 27.326 48.5698 27.2716 48.5698C27.2716 48.5148 27.2173 48.5148 27.163 48.4598C27.0543 48.4048 27 48.3498 26.837 48.3498C26.7284 48.3498 26.6197 48.3498 26.5654 48.4048C26.4024 48.5148 26.3481 48.6798 26.3481 48.9549C26.3481 49.1199 26.4024 49.2299 26.4568 49.3399C26.5654 49.5049 26.6741 49.5599 26.8914 49.5599C27 49.5599 27.1087 49.5049 27.2173 49.4499C27.326 49.3949 27.326 49.2849 27.3803 49.1749H27V48.8999H26.8914ZM23.6318 48.0198H24.0121L24.7727 49.2849V48.0198H25.1529V49.945H24.7727L24.0121 48.7348V49.945H23.6318V48.0198ZM22.491 48.0198H22.8712V49.945H22.491V48.0198ZM20.3722 48.0198H21.8934V48.4048H21.3501V49.945H20.9698V48.4048H20.4266V48.0198H20.3722ZM18.9054 49.2299H19.3401L19.1228 48.5698L18.9054 49.2299ZM18.9054 48.0198H19.2857L19.992 49.945H19.5574L19.4487 49.5599H18.7968L18.6881 49.945H18.2535L18.9054 48.0198ZM16.4608 48.4048V48.8999H16.8954C16.9497 48.8999 17.004 48.8999 17.0584 48.8449C17.1127 48.7899 17.167 48.7348 17.167 48.6798C17.167 48.6248 17.167 48.5698 17.1127 48.5148C17.0584 48.4048 17.004 48.4048 16.8954 48.4048H16.4608ZM16.0805 48.0198H16.8954C17.004 48.0198 17.1127 48.0198 17.167 48.0198C17.2213 48.0198 17.2757 48.0748 17.33 48.0748C17.3843 48.1298 17.4386 48.1848 17.493 48.2398C17.5473 48.3498 17.5473 48.4048 17.5473 48.5148C17.5473 48.6798 17.4386 48.8449 17.2757 48.9549C17.33 48.9549 17.3843 49.0099 17.4386 49.0649C17.493 49.1199 17.493 49.1749 17.493 49.2849V49.6149C17.493 49.6699 17.493 49.7249 17.493 49.7249C17.493 49.78 17.5473 49.7799 17.6016 49.835H17.2213C17.167 49.835 17.167 49.835 17.167 49.835C17.167 49.835 17.1127 49.835 17.1127 49.78L17.0584 49.7249C17.0584 49.7249 17.0584 49.6699 17.0584 49.5599V49.3399C17.0584 49.2849 17.0584 49.2299 17.004 49.1749C16.9497 49.1199 16.8954 49.1199 16.8411 49.1199H16.4065V49.835H16.0262V48.0198H16.0805ZM13.9618 48.0198H15.3199V48.4048H14.3421V48.7898H15.2113V49.1749H14.3421V49.6149H15.3743V50H13.9618V48.0198ZM12.2777 48.4048V48.9549H12.658C12.7123 48.9549 12.7666 48.9549 12.8209 48.8999C12.8753 48.8449 12.8753 48.7899 12.8753 48.6798C12.8753 48.5698 12.8209 48.5148 12.7666 48.4598C12.7666 48.4048 12.658 48.4048 12.6036 48.4048H12.2777ZM11.8431 48.0198H12.6036C12.7123 48.0198 12.8209 48.0198 12.8753 48.0748C12.9296 48.0748 13.0382 48.1298 13.0926 48.1848C13.2012 48.2948 13.3099 48.4598 13.3099 48.6798C13.3099 48.8449 13.2556 49.0099 13.1469 49.1199C13.0926 49.1749 13.0382 49.2299 12.9296 49.2299C12.8753 49.2299 12.7666 49.2849 12.658 49.2849H12.2777V49.945H11.8974V48.0198H11.8431ZM10.2676 48.3498C10.1046 48.3498 9.99599 48.4048 9.94167 48.5148C9.83301 48.6248 9.77869 48.7899 9.77869 48.9549C9.77869 49.1749 9.83301 49.3399 9.94167 49.4499C10.0503 49.5599 10.159 49.6149 10.2676 49.6149C10.4306 49.6149 10.5393 49.5599 10.5936 49.4499C10.7022 49.3399 10.7566 49.1749 10.7566 48.9549C10.7566 48.7348 10.7022 48.5698 10.6479 48.5148C10.5393 48.4048 10.4306 48.3498 10.2676 48.3498ZM10.2676 48.0198C10.4849 48.0198 10.7022 48.0748 10.8652 48.2398C10.9739 48.2948 11.0282 48.4048 11.0825 48.5148C11.1368 48.6798 11.1912 48.8449 11.1912 49.0099C11.1912 49.2299 11.1368 49.4499 11.0282 49.6149C10.8652 49.835 10.6479 50 10.3219 50C10.1046 50 9.88734 49.945 9.72436 49.78C9.61571 49.7249 9.56139 49.6149 9.50706 49.5049C9.45273 49.3399 9.39841 49.1749 9.39841 49.0099C9.39841 48.8999 9.39841 48.7899 9.45273 48.6798C9.50706 48.5698 9.50706 48.4598 9.56139 48.4048C9.67004 48.2398 9.77869 48.1848 9.94167 48.0748C9.99599 48.0198 10.1046 48.0198 10.2676 48.0198Z"/>
</svg>
